<?xml version="1.0" encoding="utf-8"?>
<!-- Generator: Adobe Illustrator 25.3.0, SVG Export Plug-In . SVG Version: 6.00 Build 0)  -->
<svg version="1.1" xmlns="http://www.w3.org/2000/svg" xmlns:xlink="http://www.w3.org/1999/xlink" x="0px" y="0px"
	 viewBox="0 0 751 556" style="enable-background:new 0 0 751 556;" xml:space="preserve">
<style type="text/css">
	.st0{fill:#22D3B5;}
	.st1{fill:#2AB5B5;}
	.st2{fill:#FFFFFF;}
	.st3{fill:#188AB2;}
	.st4{fill:#39FF97;}
	.st5{opacity:0.2;}
	.st6{fill:#5C20BA;}
	.st7{fill:#E8253D;}
	.st8{fill:#1D80A3;}
	.st9{opacity:0.5;}
	.st10{fill:#144E52;}
</style>
<g id="Layer_1">
	<g id="_x30_1">
		<path class="st0" d="M-0.4-2.6v2.4v410.3h1.2v0.9c7.3,5.3,8.6,13.3,9,21.4c0.7,15.8,1,31.6,1.5,47.5c0.2,6,3.7,10.4,8.3,10.4
			c4.2,0,7.5-4.4,7.2-10.3c-0.4-6.9-1.5-13.7-1.9-20.6c-0.2-3.3,0.5-6.7,1.1-10.1c0.7-4.1,2.2-7.8,7.4-7.1c4.7,0.7,6.1,4.4,7.6,8.5
			c2.3,6.3,5.1,12.5,8.3,18.5c4.1,7.6,9.8,14.5,13,22.4c5.5,13.8,5.9,28.5,4.4,43.3c-0.6,5.6-1.1,11.3-0.5,16.8
			c0.1,0.6,0.3,1.1,0.6,1.6c2.1,3,6.5,3.2,9,0.6c0.6-0.7,1.2-1.4,1.5-2.2c1-2.4,0.1-5.5,0-8.3c-0.3-11.8-0.9-23.7-1-35.5
			c0-8.1,4.2-14.7,9.6-20.3c10.1-10.4,28.4-4.3,30.6,9.2c0.8,5,1.5,9.9,2,14.9c0.4,3.9,0.2,10.2-0.5,14.1
			c-0.9,5.6-0.5,12.3,7.1,12.3c5.4,0,6-4.1,5.9-8.2c-0.1-2.2-0.6-4.3-0.6-6.5c-0.6-18.7-2.8-37.5,3.7-55.8c4-11.2,10.4-14.8,21-13.4
			c11.6,1.5,18.8,9.1,20.3,20.8c1.3,10.5,2.4,21,3.8,31.4c0.6,4.9,5.6,8.8,10.5,8.5c5.7-0.4,7.6-3.9,7.8-9.1
			c0.8-19.4,2.3-38.9,2.4-58.3c0.1-11.3,8-17.8,17.8-19.1c17-2.3,22.8,31.2,25.7,43.4c0.7,3,1.3,6,1.9,9c1.5,8.4,2.4,16.9,2.6,25.4
			c0.2,6,0.2,12.1-0.4,18c-0.6,5.4-3.1,10.6-2.6,16.1c0.4,4.5,6.8,13.5,11.7,8c1.3-1.5,2-3.5,1.9-5.5c-1.2-33.1-0.8-67.2,7.6-99.5
			c0.4-1.5,0.8-3,1.8-4.1c1.1-1.2,2.7-1.7,4.2-2.1c4.6-1.1,11.4-1.3,15.6,1.1c3.9,2.3,6,6.8,10.4,8.8c1.6,0.7,3.2,1.3,4.8,1.5
			c1.7,8.7,5.9,14.8,10.8,14.8c5.8,0,10.6-8.5,11.5-19.6c3.9,3.8,9.2,6.1,15.1,6.1c3.1,0,6.1-0.7,8.8-1.8
			c4,11.1,10.3,19.4,23.9,20.9c2.4,0.2,5,2.5,6.7,4.5c12.1,14,15.6,32.5,11.8,50.4c-0.8,3.7-1.9,7.5-1.1,11.2s4.5,6.2,8.2,6.5
			c1.5,0.1,3.1-0.2,4.4-1c2.7-1.9,2.5-4.9,2.2-7.6c-1.3-13.1-4.1-27-2.8-40.2c0.9-10.1,3.9-20,6-30c1.9-9.2,3.4-18.5,5.9-27.6
			c0.8-3,2.4-5.6,4.6-7.4c7.5-0.7,13.8-3.7,18.7,2.7c4,5.3,5.6,12.2,9.7,17.6c3.9,5.2,9.7,8.9,15.9,10.5c2.1,3.2,4.2,6.4,5.6,9.9
			c4,10.1,4.3,20.8,3.2,31.5c-0.4,4.1-0.8,8.2-0.4,12.3c0.1,0.8,0.6,1.5,1.4,2.2c1.4,1.3,3.5,1.4,4.9,0.1c0.8-0.7,1.5-1.5,1.8-2.3
			c0.7-1.7,0.1-4,0-6.1c-0.3-8.6-0.7-17.2-0.7-25.8c0-5.9,3-10.7,7-14.8c5.4-5.6,19.5-4.1,21.3,2.6c1.8,6.8,2.2,14.1,2.8,21.2
			c0.2,2.2-1.5,4.6-1.4,6.8c0.3,3.2,2,6.1,5.8,6.1c3.9,0,4.4-3,4.3-6c0-1.6-0.4-3.1-0.5-4.7c-0.4-13.6-2-27.3,2.7-40.6
			c2.9-8.2,7.5-10.7,15.3-9.8c8.4,1.1,13.7,6.6,14.7,15.1c0.9,7.6,1.8,15.3,2.8,22.9c0.5,3.6,4.1,6.4,7.6,6.2
			c4.1-0.3,5.5-2.8,5.7-6.7c0.6-14.1,1.7-28.3,1.8-42.4c0-8.2,5.8-12.9,12.9-13.9c5.4-0.7,10.3,2.5,11,8.2c0.5,4.3,3.3,9,5,13.9
			c1.3,3.8,2.6,7.7,3.4,11.5c5.7,24.3,0.3,51.1,0.4,64.9c0,2.8-0.8,5.9,0.1,8.4c0.6,1.9,3,3.9,5,4.3c2.7,0.6,4.8-1.2,4.7-4.4
			c0-2-0.3-4.1-0.3-6.1c0.1-14.3-4.2-34.7,0.6-66.3c1.3-8.6,4.4-17.1,6.1-25.8c0.9-4.2,3.2-6.1,6.7-5.4c3.3,0.7,7.1,2.2,9.1,4.7
			c8.1,10,17.8,9.1,23.2-2.6c1.9-4.1,5.3-5.6,9.6-4.4c5.3,1.5,8.4,5.4,9.8,10.3c2.8,9.5,7.3,17,18.4,18.2c1.7,0.2,3.6,1.8,4.9,3.3
			c10.2,11.8,11.4,25.7,7.8,40.1c-0.9,3.4,0,5.7,1.5,7.7c1,1.4,4,2.3,5.7,1.9c1.6-0.4,3.6-2.8,3.7-4.4c0.2-3.9-0.8-7.8-1.1-11.7
			c-0.5-6.5-1.6-13.1-1-19.5c0.7-7.3,2.8-14.6,4.4-21.8c1.4-6.7,2.5-13.5,4.3-20.1c1.1-4,4-7.1,8.5-7.8c14-2,16.6-5.3,20.6-18
			c3.4-12.4-1-403.7-1-403.7h-0.2 M80.2,465.9c-0.2,2.9-3.5,6.8-6.3,7.7c-2.2,0.8-6.4-1.6-8.5-3.8c-9.6-9.9-12.3-22.6-12.6-35.8
			c-0.2-6.2,3.4-8.7,10.3-8.6c8.3,0.1,15.8,5.3,16.9,13.7C81.2,447.9,80.9,457,80.2,465.9z M99.8,444.6l-0.1,1.4
			c-1.2,4.6-1.8,9.2-3.2,13.8c-0.3,1-1.8,2.2-2.7,2.2c-0.9,0-2.6-1.3-2.6-2.2c-0.4-5.5-3.4-10.7-1-16.6c1.4-3.3,2.8-5.5,6.3-5.1
			C100.1,438.6,99.9,441.7,99.8,444.6z"/>
	</g>
	<g>
		<path class="st1" d="M91.1,278.3c-14.5,0-27-4.7-33.1-11.5c-0.5-0.4-1.1-0.9-1.6-1.4c0,0,8.7,16.7,34.7,16.2
			c26,0.5,34.7-16.2,34.7-16.2c-0.5,0.5-1.1,1-1.6,1.4C118.1,273.6,105.6,278.3,91.1,278.3z"/>
		<path class="st1" d="M49.9,372.4c-10.4,0-19.4-5.6-23.9-13.7c-0.4-0.5-0.8-1.1-1.2-1.7c0,0,6.3,19.9,25,19.4
			c18.7,0.6,25-19.4,25-19.4c-0.4,0.6-0.8,1.1-1.2,1.7C69.4,366.8,60.4,372.4,49.9,372.4z"/>
		<path class="st1" d="M186.8,139.3c-16.5,0-30.8-8.8-37.9-21.8c-0.6-0.8-1.2-1.7-1.8-2.7c0,0,10,31.6,39.7,30.7
			c29.7,0.9,39.7-30.7,39.7-30.7c-0.6,0.9-1.2,1.8-1.8,2.7C217.7,130.5,203.3,139.3,186.8,139.3z"/>
		<path class="st1" d="M91.1,47.3c-11.3,0-21-6-25.8-14.8c-0.4-0.6-0.8-1.2-1.2-1.8c0,0,6.8,21.6,27,20.9c20.2,0.6,27-20.9,27-20.9
			c-0.4,0.6-0.8,1.2-1.2,1.8C112.1,41.3,102.4,47.3,91.1,47.3z"/>
		<path class="st1" d="M169.8,346.7c-11,0-20.5-5.9-25.2-14.5c-0.4-0.6-0.8-1.2-1.2-1.8c0,0,6.7,21.1,26.4,20.5
			c19.8,0.6,26.4-20.5,26.4-20.5c-0.4,0.6-0.8,1.2-1.2,1.8C190.3,340.8,180.8,346.7,169.8,346.7z"/>
		<path class="st1" d="M601.1,278.3c-14.5,0-27-4.7-33.1-11.5c-0.5-0.4-1.1-0.9-1.6-1.4c0,0,8.7,16.7,34.7,16.2
			c26,0.5,34.7-16.2,34.7-16.2c-0.5,0.5-1.1,1-1.6,1.4C628.1,273.6,615.6,278.3,601.1,278.3z"/>
		<path class="st1" d="M560,372.4c-10.4,0-19.4-5.6-23.9-13.7c-0.4-0.5-0.8-1.1-1.2-1.7c0,0,6.3,19.9,25,19.4
			c18.7,0.6,25-19.4,25-19.4c-0.4,0.6-0.8,1.1-1.2,1.7C579.4,366.8,570.4,372.4,560,372.4z"/>
		<path class="st1" d="M696.8,139.3c-16.5,0-30.8-8.8-37.9-21.8c-0.6-0.8-1.2-1.7-1.8-2.7c0,0,10,31.6,39.7,30.7
			c29.7,0.9,39.7-30.7,39.7-30.7c-0.6,0.9-1.2,1.8-1.8,2.7C727.7,130.5,713.4,139.3,696.8,139.3z"/>
		<path class="st1" d="M601.1,47.3c-11.3,0-21-6-25.8-14.8c-0.4-0.6-0.8-1.2-1.2-1.8c0,0,6.8,21.6,27,20.9c20.2,0.6,27-20.9,27-20.9
			c-0.4,0.6-0.8,1.2-1.2,1.8C622.1,41.3,612.4,47.3,601.1,47.3z"/>
		<path class="st1" d="M679.8,346.7c-11,0-20.5-5.9-25.2-14.5c-0.4-0.6-0.8-1.2-1.2-1.8c0,0,6.7,21.1,26.4,20.5
			c19.8,0.6,26.4-20.5,26.4-20.5c-0.4,0.6-0.8,1.2-1.2,1.8C700.3,340.8,690.8,346.7,679.8,346.7z"/>
	</g>
</g>
<g id="COLOR">
	<circle class="st2" cx="707.1" cy="280.7" r="22.6"/>
	<circle class="st3" cx="703.2" cy="274.4" r="11.1"/>
	<g>
		<g>
			<path class="st2" d="M709.3,273c0,0,0-0.1,0-0.1c0-0.3-0.1-0.7-0.2-1c-0.1-0.3-0.3-0.6-0.5-0.8c-0.2-0.2-0.5-0.4-0.8-0.5
				c-0.3-0.2-0.6-0.2-1-0.2c-0.2,0-0.4,0.1-0.7,0.1c-0.4,0.1-0.8,0.3-1.1,0.6c-0.1,0.2-0.3,0.3-0.4,0.5c-0.2,0.4-0.3,0.8-0.3,1.3
				c0,0,0,0.1,0,0.1c0,0.3,0.1,0.7,0.2,1c0.1,0.3,0.3,0.6,0.5,0.8c0.2,0.2,0.5,0.4,0.8,0.5c0.3,0.2,0.6,0.2,1,0.2
				c0.2,0,0.4-0.1,0.7-0.1c0.4-0.1,0.8-0.3,1.1-0.6c0.1-0.2,0.3-0.3,0.4-0.5C709.2,273.8,709.3,273.4,709.3,273L709.3,273z"/>
		</g>
	</g>
	<circle class="st2" cx="66.8" cy="105.4" r="23.1"/>
	<ellipse class="st4" cx="72.8" cy="100.8" rx="11.8" ry="11.5"/>
	<g>
		<g>
			<path class="st2" d="M75.3,106.4c3.2,0,3.2-5,0-5C72.1,101.4,72.1,106.4,75.3,106.4L75.3,106.4z"/>
		</g>
	</g>
	<g class="st5">
		<path class="st6" d="M688.1,292.9c15.4,0.1,30.5-8.9,37.6-22.6c1.2,3.5,2,7,2.5,10.7c0.3,2.1,0.5,4.3,0,6.5
			c-0.6,2.9-2.3,5.5-4,7.9c-1.3,1.8-2.6,3.7-4.4,5c-1.6,1.2-3.6,1.9-5.6,2.5c-4.9,1.4-10.1,2.2-15,0.8c-4.9-1.4-9.3-5.1-10.4-10.1"
			/>
	</g>
	<g class="st5">
		<path class="st6" d="M48.4,92.4c2.4,15.3,15,28.6,30.3,31.6c-5,4.9-13,6.4-19.6,4.1s-11.8-8.2-13.8-15c-2-6.8-1-14.3,2.3-20.5
			c0.2-0.3,0.5-0.7,0.8-0.6s0.1,0.8-0.1,0.5"/>
	</g>
	<g>
		<path class="st7" d="M121.7,389.3c1.6-0.1,3.3-0.2,4.9-0.3c-1-1.1-2-2.2-3-3.3c-3.7-4.1-7.6-8.5-8.8-13.8
			c4.8,3.6,9.6,7.2,14.4,10.7c1.3,1,2.7,2,4.3,1.8c0.6-0.1,1.1-0.3,1.3-0.9c0.2-0.6-0.3-1.2-0.7-1.7c-5.6-6.4-11.2-12.8-16.7-19.2
			c-0.5-0.5-0.9-1-1.5-1.4c-1.5-0.9-3.6-0.6-5.1,0.4c-1.5,1-2.5,2.5-3.5,4c-0.7,1.1-1.5,2.2-2.2,3.3c-0.3,0.4-0.6,0.9-0.6,1.4
			c0,0.6,0.5,1.1,0.9,1.5c5.5,5.8,10.9,11.5,16.4,17.3"/>
	</g>
	<g>
		<path class="st7" d="M121.3,366.3c3.9-3.9,6.9-8.7,8.9-13.8c0.9-2.3,1.4-5.5-0.7-6.9c-1.8-1.2-4.2-0.2-6.1,0.9
			c-8.5,4.9-16.4,10.8-23.5,17.7c-5.4,5.3-10.6,11.7-11.2,19.3c-0.2,1.8,0.1,4,1.6,5c1.8,1.2,4.3,0.1,6.2-1c3.1-1.8,6.3-3.7,8.5-6.4
			c2.4-3,3.6-6.8,5.8-9.9s6.3-5.6,9.8-4"/>
	</g>
	<g>
		<path class="st2" d="M132.7,405.5c-3.4-5-6.9-10-10.3-15c-0.4-0.6-0.8-1.4-0.5-2c0.8-1.3,3.3,0.6,4.3-0.5c-5-4.9-9.5-10.3-13.5-16
			c3.8-0.6,7.3,2.2,9.9,5c2.6,2.8,5.1,6.1,8.8,7.3c0.3-1,1.5-1.4,2.5-1.1c1,0.3,1.7,1.1,2.4,1.8c2.9,3.2,5.7,6.3,8.6,9.5
			c3.2-2.7,8.2-3,11.6-0.5c3.3,2.5,4.3,7.7,2,11.2c-2.3,3.5-7.7,4.5-11,2c0.3,3.8-1.5,7.9-4.8,9.8s-8,1.4-10.5-1.5
			c-2.5-2.9-1.9-8,1.3-10.1"/>
	</g>
	<g>
		<path class="st8" d="M88.7,387.7c-0.4-6.2,1.9-12.2,5.3-17.4c3.4-5.1,7.9-9.4,12.4-13.7c3.9-3.7,8-7.6,12.9-9.8
			c2.9-1.3,6.1-2.1,8.9-3.6c-9-5.2-17.2-11.9-24.1-19.7c-0.3-0.4-0.7-0.8-0.9-1.3c-0.2-0.5-0.1-1-0.1-1.5c0.2-3.4,0.4-6.7,0.6-10.1
			c0-0.7,0.1-1.4,0.2-2.1c0.4-1.9,1.3-3.6,2-5.4c1.8-5.2,0.5-11.5-3.4-15.5c-3.8-4-10-5.6-15.3-4.1c-1.4,0.4-2.9,1.1-4.4,1
			c-1,0-2-0.4-3-0.7c-4.1-1.1-9.2,0-11.2,3.7c-0.3,0.6-0.6,1.2-1,1.7c-0.9,0.9-2.4,0.7-3.7,0.6c-4.1-0.1-8.2,2.3-10.1,6
			c-0.5,0.9-0.9,2-1.7,2.6c-0.6,0.4-1.4,0.5-2.2,0.6c-6.1,1.2-10,7.6-10.1,13.8c0,6.2,3.1,12,6.8,16.9c0.4,0.5,0.8,1.1,1,1.7
			c0.3,0.9,0.1,1.9,0.1,2.9c-0.2,4.7,2.7,9.5,7,11.5c0.7,0.3,1.5,0.6,2.2,0.4c1.6-0.3,2.3-2.2,3.8-3c1.5-0.8,3.4,0.1,4.5,1.4
			c1.1,1.3,1.6,3,2.1,4.6c4.7,13.8,16.2,24.4,20.6,38.2"/>
	</g>
	<g class="st9">
		<path class="st6" d="M109.4,377.1c-4.4,3.9-9.1,7.5-14.1,10.7c-2.1,1.3-5.5,2.3-6.6,0.1c-0.4-0.7-0.4-1.5-0.3-2.3
			c0.8-9.9,8.2-17.8,15.4-24.6c5.3-5,10.8-9.9,17.1-13.5c1.5-0.9,3.1-1.7,4.8-1.8c1.7-0.1,3.6,0.5,4.4,2.1c0.7,1.4,0.5,3.1,0,4.6
			c-1.2,4-3.3,7.8-6.3,10.8c-0.8,0.8-1.6,1.6-2,2.6c-0.5,1.1-0.5,2.3-0.4,3.4c0.8,14.9,9.4,28.8,21.4,37.7c1.7,1.3,3.6,2.6,4.1,4.7
			c0.9,3.4-2.6,6.5-6.1,7.4c-1.4,0.3-2.8,0.5-4.2,0.2c-2.7-0.5-5.1-2.7-5.7-5.4c-0.7-2.7,0.4-5.7,2.5-7.5c-7.6-10-15.2-20-22.9-30"
			/>
	</g>
	<g class="st5">
		<path class="st6" d="M46.4,330.3c-3.5-5.2-5.6-11.4-6-17.7c-0.1-2,0-4.2,1.1-5.9c1.5-2.3,4.6-3.1,7.3-2.5c2.7,0.6,4.9,2.5,6.6,4.6
			c1,1.3,1.9,2.7,2.2,4.3c0.2,1.2,0.1,2.4,0.2,3.6c0.2,4.3,2.9,8.4,6.8,10.2c1.5,0.7,3.2,1.1,4.7,0.5c2.4-1,3.2-4.1,5.4-5.6
			c1.7-1.2,4.1-1.4,5.1-3.1c0.5-0.8,0.6-2,1.4-2.5c0.8-0.6,2-0.2,3-0.2c3.2,0,5.2-3.4,8.2-4.6c3.6-1.4,8.1,0.5,11.2-1.9
			c0.8,2.9-0.7,6-3.1,7.8c-2.4,1.8-5.4,2.4-8.4,2.7c-0.7,0.1-1.4,0.1-2,0.5c-0.5,0.3-0.9,0.8-1.3,1.3c-2.5,3.3-6.4,5.5-10.5,5.9
			c-2.5,7.5-2.1,15.9,1,23.1c3.1,7.2,9,13.2,16.2,16.5c-3.9,5.4-6.6,11.6-7.9,18.1c-3.8-3.4-6.2-8.1-8.5-12.6
			c-5.1-10-10.2-20-15.2-30c-2.7,4.1-9.3,3.7-12.7,0.2c-3.4-3.5-4.1-8.8-3.6-13.7"/>
	</g>
	<g class="st5">
		<path class="st6" d="M53.3,299c4.6,2.3,9.3,4.7,12.7,8.4c0.9,1,1.7,2,2.5,3.1c1.8,2.4,3.6,4.9,5.5,7.3c0.2,0.3,0.5,0.6,0.8,0.6
			c0.7,0.1,1.1-0.8,1.2-1.5c0.6-5.5-0.9-11.2-4.2-15.6c-2.1-2.8-5-5.2-8.4-6.1s-7.3-0.2-9.8,2.3"/>
	</g>
	<g class="st5">
		<path class="st6" d="M68.2,291.2c4.1,2.1,8,4.9,10.9,8.6s4.6,8.4,4.1,13c-0.1,0.7,0.1,1.7,0.8,1.6c0.2,0,0.4-0.1,0.5-0.3
			c2.5-1.9,3.5-5.3,3.7-8.5c0.2-4.1-0.8-8.4-3.6-11.3c-0.7-0.7-1.5-1.3-2.3-1.9c-0.9-0.7-1.9-1.4-2.8-2.2c-1.8-1.4-3.7-2.8-5.9-3.2
			s-4.9,0.3-5.8,2.3"/>
	</g>
	<g class="st5">
		<path class="st6" d="M93.2,308.8c0.8-3,1.6-6,1.1-9.1c-0.6-3.5-2.7-6.5-5-9.2c-1.2-1.5-2.5-2.9-3.8-4.2c4.5,0.8,8.7,3.2,11.5,6.7
			s4.3,8.1,4.1,12.7c0,0.9-0.2,1.8-0.5,2.6c-0.6,1.4-2.1,2.4-3.6,2.5s-3.1-0.6-4-1.9"/>
	</g>
</g>
<g id="LINEAS">
	<g>
		<g>
			<path class="st10" d="M681.7,281.6c0-13.5,11-24.5,24.5-24.5c13.5,0,24.5,11,24.5,24.5s-11,24.5-24.5,24.5
				C692.7,306.1,681.7,295.1,681.7,281.6z M684.6,281.6c0,11.9,9.7,21.6,21.6,21.6c11.9,0,21.6-9.7,21.6-21.6
				c0-11.9-9.7-21.6-21.6-21.6C694.3,260,684.6,269.7,684.6,281.6z"/>
		</g>
		<g>
			<path class="st10" d="M691,274.4c0-6.8,5.5-12.2,12.2-12.2c6.8,0,12.2,5.5,12.2,12.2c0,6.8-5.5,12.2-12.2,12.2
				C696.5,286.7,691,281.2,691,274.4z M692.4,274.4c0,6,4.8,10.8,10.8,10.8c6,0,10.8-4.8,10.8-10.8c0-6-4.8-10.8-10.8-10.8
				C697.3,263.6,692.4,268.5,692.4,274.4z"/>
		</g>
		<g>
			<path class="st10" d="M695.7,271.7c0,3.4,2.8,6.2,6.2,6.2c2,0,3.8-0.9,4.9-2.4c-1.4-0.1-2.5-1.2-2.5-2.6c0-1.5,1.2-2.6,2.6-2.6
				c0.4,0,0.8,0.1,1.1,0.2c-0.6-2.9-3.1-5.1-6.1-5.1C698.5,265.5,695.7,268.3,695.7,271.7z"/>
		</g>
	</g>
	<g>
		<g>
			<path class="st10" d="M59.9,82.2c13-3.8,26.6,3.6,30.4,16.6c3.8,13-3.6,26.6-16.6,30.4c-13,3.8-26.6-3.6-30.4-16.6
				C39.5,99.6,46.9,86,59.9,82.2z M60.7,84.9c-11.4,3.4-18,15.4-14.6,26.8c3.4,11.4,15.4,18,26.8,14.6c11.4-3.4,18-15.4,14.6-26.8
				C84.2,88.1,72.1,81.6,60.7,84.9z"/>
		</g>
		<g>
			<path class="st10" d="M69.4,89c6.5-1.9,13.3,1.8,15.2,8.3c1.9,6.5-1.8,13.3-8.3,15.2c-6.5,1.9-13.3-1.8-15.2-8.3
				C59.2,97.8,62.9,91,69.4,89z M69.8,90.4c-5.7,1.7-9,7.7-7.3,13.4s7.7,9,13.4,7.3c5.7-1.7,9-7.7,7.3-13.4S75.5,88.7,69.8,90.4z"/>
		</g>
		<g>
			<path class="st10" d="M73.3,92.8c-3.3,1-5.2,4.4-4.2,7.8c0.6,1.9,2,3.3,3.7,4c-0.3-1.4,0.5-2.8,1.8-3.2c1.4-0.4,2.9,0.4,3.3,1.8
				c0.1,0.4,0.1,0.8,0.1,1.1c2.6-1.3,4-4.4,3.1-7.3C80.1,93.7,76.6,91.8,73.3,92.8z"/>
		</g>
	</g>
	<g>
		<g>
			<g>
				<path class="st10" d="M107.8,375.9c-2.4,2.7-5,5.1-7.7,7.4c-1.4,1.2-2.9,2.3-4.4,3.3c-1.2,0.9-3.1,2.5-4.7,1.6
					c-3-1.6-1.1-6.8-0.2-9.1c1.1-3,2.8-5.7,4.7-8.2c3.8-5.1,8.7-9.4,13.4-13.7c2.7-2.4,5.5-4.9,8.4-7c1.5-1.1,3-2.1,4.5-2.9
					c1.5-0.9,3.2-1.7,5-1.6c5.1,0.4,2.5,6.1,1.2,8.9c-1.8,3.6-4,7.1-6.5,10.2c-1,1.2,0.8,3,1.8,1.8c2.6-3.3,4.9-6.8,6.8-10.5
					c1.5-3.1,3.8-7.4,1.3-10.6c-2.5-3.2-6.9-2.3-10-0.7c-3.7,2-7.1,4.6-10.3,7.3c-6,5.1-12.1,10.4-16.9,16.5
					c-2.3,2.9-4.2,6.1-5.6,9.5c-1.3,3.3-2.7,7.7-0.4,10.8c3.1,4.2,7.8,0.7,10.9-1.6c3.8-2.9,7.4-6.1,10.6-9.7
					C110.7,376.5,108.9,374.7,107.8,375.9L107.8,375.9z"/>
			</g>
		</g>
		<g>
			<g>
				<path class="st10" d="M90.3,388c-8.8-14.9-17.1-30.1-25.5-45.3c-0.8-1.4-2.9-0.2-2.2,1.3c8.3,15.2,16.6,30.4,25.5,45.3
					C89,390.6,91.1,389.4,90.3,388L90.3,388z"/>
			</g>
		</g>
		<g>
			<g>
				<path class="st10" d="M62.1,342.5c-3.5,3.1-8.9,1.5-11.3-2.2c-2.8-4.3-2-9.6,0.3-13.9c1.3-2.4,3.2-4.5,4.9-6.7
					c1.7-2.1,2.9-4.5,4-7c0.4-0.9,0.7-2.7,1.9-2.5c1.3,0.2,2.6,0.7,3.8,1.2c2.4,0.9,4.7,2.2,6.2,4.3c1.7,2.4,1.9,5,0.4,7.5
					c-1.6,2.8-3.8,5.5-5.8,8c-1,1.2,0.8,3,1.8,1.8c2.2-2.7,4.4-5.5,6.2-8.5c1.5-2.7,1.8-5.6,0.5-8.4c-1.3-2.8-3.7-4.9-6.4-6.2
					c-1.4-0.7-2.8-1.2-4.3-1.6c-1.3-0.4-2.9-1-4.3-0.3c-1.2,0.6-1.6,1.8-2.1,3c-0.7,1.7-1.4,3.3-2.4,4.9c-1.8,3-4.3,5.4-6.1,8.4
					c-3.1,5.1-4.3,11.7-1,17c3.2,5.3,10.6,7.3,15.4,3C65.1,343.2,63.3,341.5,62.1,342.5L62.1,342.5z"/>
			</g>
		</g>
		<g>
			<g>
				<path class="st10" d="M54.7,320.8c0.8,1.1,1.6,2.3,2.8,3c1.3,0.7,2.9,0.9,4.2,0.1c1.2-0.7,2-2.1,2.8-3.2
					c0.9-1.3,1.9-2.5,2.8-3.8c0.4-0.5,0.1-1.4-0.4-1.7c-0.6-0.4-1.3-0.1-1.7,0.4c-0.8,1-1.5,2-2.3,3c-0.7,0.9-1.3,1.9-2.1,2.7
					c-1.4,1.5-3.1-0.7-4-1.8c-0.4-0.5-1.1-0.8-1.7-0.4C54.6,319.4,54.3,320.2,54.7,320.8L54.7,320.8z"/>
			</g>
		</g>
		<g>
			<g>
				<path class="st10" d="M48.1,329.3c-4.2-6.1-9.1-13.6-6.2-21.3c1.2-3.3,4-6,7.3-7.1c3.3-1.1,6.7-0.6,9.7,1.2
					c3.4,2,5.9,5.2,7.9,8.4c0.9,1.4,3,0.1,2.2-1.3c-4.1-6.5-10.7-12.9-19-11.2c-8.3,1.7-12.8,10.3-11.2,18.3
					c0.5,2.5,1.7,4.9,2.9,7.2c1.3,2.4,2.7,4.7,4.3,7C46.9,331.9,49.1,330.6,48.1,329.3L48.1,329.3z"/>
			</g>
		</g>
		<g>
			<g>
				<path class="st10" d="M47.2,315.1c1.2,3,3.6,5.3,6.7,6.3c0.6,0.2,1.4-0.2,1.5-0.9c0.2-0.7-0.2-1.3-0.9-1.5
					c-0.2-0.1-0.3-0.1-0.5-0.2c0,0-0.3-0.1-0.1,0c0.2,0.1-0.1,0-0.1-0.1c-0.3-0.1-0.6-0.3-0.8-0.5c-0.3-0.2-0.6-0.4-0.8-0.6
					c-0.2-0.1,0.1,0.1,0,0c-0.1,0-0.1-0.1-0.2-0.1c-0.1-0.1-0.3-0.2-0.4-0.3c-0.2-0.2-0.5-0.4-0.7-0.7c-0.1-0.1-0.2-0.2-0.3-0.4
					c-0.1-0.1,0,0,0.1,0.1c0,0-0.1-0.1-0.1-0.1c0-0.1-0.1-0.1-0.1-0.2c-0.2-0.3-0.4-0.5-0.5-0.8c-0.1-0.2-0.2-0.3-0.2-0.5
					c0-0.1-0.1-0.2-0.1-0.2c0-0.1-0.1-0.3,0,0c-0.1-0.3-0.3-0.6-0.6-0.7c-0.3-0.2-0.7-0.2-1-0.1C47.5,313.8,46.9,314.5,47.2,315.1
					L47.2,315.1z"/>
			</g>
		</g>
		<g>
			<g>
				<path class="st10" d="M53.7,298.8c0.8-3.1,3.3-5.4,6.3-6.4c3.4-1.2,7.1-0.5,10.2,1.2c3.2,1.7,5.6,4.4,7.5,7.5
					c1.9,3.1,4.1,7,3.8,10.8c-0.3,3.6-3.1,6.5-6.5,7.3c-1.6,0.4-0.9,2.8,0.7,2.4c3.6-0.8,6.6-3.6,7.8-7.2c1.5-4.4-0.5-9-2.6-12.8
					c-4-7.3-11.8-14.2-20.8-11.9c-4.2,1.1-7.7,4.2-8.9,8.4C50.9,299.7,53.3,300.4,53.7,298.8L53.7,298.8z"/>
			</g>
		</g>
		<g>
			<g>
				<path class="st10" d="M68.4,290.7c1-3.1,4-5.2,7.1-5.6c3.7-0.4,7.4,1.3,10,3.8c2.7,2.5,4.9,5.8,6.3,9.1c1.3,3.1,1.3,6.5,0,9.6
					c-1.4,3.2-5,7.1-8.9,6.3c-1.6-0.3-2.2,2.1-0.7,2.4c4.3,0.8,8.3-2.1,10.6-5.5c2.2-3.3,3-7.4,2.1-11.3c-1-4.3-3.9-8.7-7-11.8
					c-3.1-3.1-7.4-5.4-11.9-5.2c-4.5,0.2-8.8,3-10.2,7.4C65.5,291.5,67.9,292.2,68.4,290.7L68.4,290.7z"/>
			</g>
		</g>
		<g>
			<g>
				<path class="st10" d="M84.7,286.1c3.1-2.5,8.3-1.7,11.6-0.1c3.8,1.8,6.7,5,7.9,9c1.2,3.8,1,8.2-1.2,11.6
					c-2.2,3.4-6.7,4.6-10.3,2.8c-1.4-0.7-2.7,1.4-1.3,2.2c3.3,1.6,7.3,1.6,10.5-0.4c3.4-2.1,5.1-6,5.5-9.8c0.9-8.1-4.3-15.8-12-18.3
					c-4.1-1.4-9-1.4-12.5,1.4C81.6,285.3,83.4,287.1,84.7,286.1L84.7,286.1z"/>
			</g>
		</g>
		<g>
			<g>
				<path class="st10" d="M101.8,310c1.4,3.5,1.2,7.6-0.5,10.9c-0.7,1.4,1.4,2.7,2.2,1.3c2.1-3.9,2.4-8.7,0.8-12.9
					c-0.2-0.6-0.8-1.1-1.5-0.9C102.1,308.6,101.6,309.4,101.8,310L101.8,310z"/>
			</g>
		</g>
		<g>
			<g>
				<path class="st10" d="M100.9,322.7c8.4,8.7,17.7,16.4,27.7,23.2c1.3,0.9,2.6-1.3,1.3-2.2c-9.8-6.6-18.9-14.3-27.2-22.8
					C101.5,319.8,99.7,321.6,100.9,322.7L100.9,322.7z"/>
			</g>
		</g>
		<g>
			<g>
				<g>
					<path class="st10" d="M103.2,371.2c10.4,11.1,20.1,22.8,29.2,34.9c1,1.3,3.1,0,2.2-1.3c-9.2-12.3-19.1-24.2-29.6-35.4
						C103.8,368.3,102.1,370.1,103.2,371.2L103.2,371.2z"/>
				</g>
			</g>
			<g>
				<g>
					<path class="st10" d="M133.2,404.7c-2.7,0.8-3.9,3.9-3.8,6.4c0.1,2.7,1.5,5.2,3.7,6.8c4.4,3.2,11,2.1,14.1-2.3
						c1.8-2.6,2-6.1,0.4-8.8c-0.8-1.4-3-0.1-2.2,1.3c2.1,3.7-0.6,7.8-4.3,8.9c-3.7,1.1-8.1-0.7-9.1-4.6c-0.4-1.6-0.2-4.7,1.7-5.2
						C135.4,406.7,134.7,404.3,133.2,404.7L133.2,404.7z"/>
				</g>
			</g>
			<g>
				<g>
					<path class="st10" d="M146.7,408.1c2.5,1.8,5.9,2.2,8.8,1.1c2.8-1.1,4.9-3.7,5.5-6.7c0.6-3.3-0.6-6.2-2.8-8.7
						c-2-2.2-5.1-4.4-8.3-3.8c-1.2,0.3-2.3,1-3.2,1.9c-0.8,0.8-1.2,1.5-1.8,2.2c-1.1,1.2,0.7,2.9,1.8,1.8c1-1,1.6-2.3,2.9-3.1
						c1.9-1.1,4.2,0.4,5.6,1.6c1.9,1.7,3.5,3.9,3.4,6.5c-0.1,2.3-1.2,4.5-3.2,5.6c-2.4,1.4-5.3,1.1-7.5-0.5
						c-0.5-0.4-1.4-0.1-1.7,0.4C145.9,407,146.2,407.7,146.7,408.1L146.7,408.1z"/>
				</g>
			</g>
			<g>
				<g>
					<path class="st10" d="M105.2,370.4c0.4-2.5,2.3-4.7,4-6.5c0.8-0.8,1.7-1.6,2.8-1.9c1.2-0.3,2.4-0.2,3.6-0.1
						c0.7,0.1,1.2-0.6,1.2-1.2c0-0.7-0.6-1.2-1.2-1.2c-1.4-0.1-2.9-0.2-4.3,0.2c-1.5,0.4-2.8,1.4-3.8,2.4c-1.1,1.1-2,2.3-2.9,3.5
						c-0.9,1.3-1.6,2.7-1.9,4.3c-0.1,0.7,0.2,1.3,0.9,1.5C104.2,371.5,105.1,371.1,105.2,370.4L105.2,370.4z"/>
				</g>
			</g>
			<g>
				<g>
					<path class="st10" d="M114.8,361.5c10.2,11.3,20.2,22.8,30.1,34.4c1,1.2,2.8-0.6,1.8-1.8c-9.9-11.6-19.9-23-30.1-34.4
						C115.5,358.5,113.7,360.3,114.8,361.5L114.8,361.5z"/>
				</g>
			</g>
			<g>
				<g>
					<path class="st10" d="M122.2,390.2c0-0.7,2-0.3,2.4-0.3c1.3,0.2,2.4,0,3.5-0.8c0.5-0.4,0.5-1.4,0-1.8c-2.7-2.1-5.3-4.5-7.7-6.9
						c-1.2-1.2-2.4-2.5-3.5-3.8c-0.9-1-2.3-2.3-2.7-3.7c-0.2-0.7,0.4-0.3,0.9,0c0.7,0.4,1.3,1,1.9,1.5c1.6,1.2,3.1,2.4,4.7,3.6
						c3,2.3,6,4.7,9,7c0.8,0.6,2.2,0.3,2.1-0.9c0-0.4,0.6-1.1,1-0.7c1.2,1,3-0.7,1.8-1.8c-2-1.7-5.5-0.3-5.3,2.5
						c0.7-0.3,1.4-0.6,2.1-0.9c-2.8-2.2-5.7-4.4-8.5-6.6c-1.5-1.1-2.9-2.3-4.4-3.4c-1.3-1-2.5-2.2-4-2.9c-1.2-0.5-2.5-0.5-3.4,0.6
						c-0.8,1-0.6,2.3-0.1,3.4c0.6,1.3,1.7,2.4,2.6,3.5c1,1.2,2.1,2.4,3.2,3.6c2.6,2.7,5.4,5.3,8.3,7.6c0-0.6,0-1.2,0-1.8
						c-0.5,0.4-1.7,0.1-2.3,0c-0.7-0.1-1.3-0.1-1.9,0.1c-1.3,0.4-2.4,1.3-2.3,2.8C119.8,391.8,122.3,391.8,122.2,390.2L122.2,390.2z
						"/>
				</g>
			</g>
		</g>
	</g>
</g>
<g id="BABA_ARRIBA">
	<g>
		<path class="st0" d="M84.5,130.4c-1.2,0.8-2.3,1.6-3.6,2.3c0.2,2.2-1.6,4.4-3.7,5.1c-2.4,0.8-5.1,0.3-7.6-0.4
			c-8.5-2.2-16.9-5.7-23.2-11.9c-6.2-6.2-10-15.4-7.9-23.9l0.8,1.8c4.3-0.2,8.2,2.4,11.1,5.6c2.9,3.1,5.1,6.9,8.1,9.9
			c2.4,2.4,5.3,4.4,8.5,5.7c1.2-3.5,3.8-6.3,7.4-6.8c4-0.6,7.8,1.9,11.1,4.2c1.1,0.8,2.2,1.6,2.5,2.8
			C88.4,127.2,86.3,129.1,84.5,130.4z"/>
	</g>
	<g>
		<path class="st0" d="M684.1,311.8c-1.1-6.5,4.4-12.9,10.8-14c6.5-1.1,13.1,2.4,17.1,7.7c-0.3-4.3,0.7-8.8,3.6-12
			c2.9-3.2,7.9-4.6,11.7-2.6c-4.6-9.6-1-22.3,7.8-28.1c0.5-0.3,1.1-0.7,1.7-0.6c1.5,0.1,2.1,2,2.2,3.6c1.1,13.7,1.7,28.9-6.9,39.6
			c-5.8,7.3-15.3,11.2-24.6,11.5c-2.3,0.1-4.5,0-6.7-0.8c-2-0.7-3.8-2-5.5-3.3c-3.2-2.6-6.2-5.4-8.9-8.6"/>
	</g>
	<g>
		<path class="st0" d="M70.6,375.5c6.1-2.7,13.3-1,19.4,1.7c2.4,1.1,4.8,2.3,6.8,4.2c4.9,4.7,5.8,13.1,1.9,18.6
			c-0.4,0.5-0.8,1.1-1.4,1.4c-0.6,0.3-1.3,0.3-1.9,0.3c-2.5,0-5-0.7-7.3-1.8c-9.7-4.2-16.5-14.3-16.7-24.9"/>
	</g>
	<g>
		<path class="st0" d="M111.2,395.7c10.6-0.3,21.2,3.4,29.3,10.2c2.5,2.1,4.8,4.6,6.1,7.7s1.3,6.8-0.5,9.5
			c-2.4,3.5-7.3,4.6-11.4,3.4s-7.3-4.3-9.9-7.7c-5-6.7-7.7-15.1-7.6-23.4"/>
	</g>
	<g>
		<path class="st0" d="M20.9,313.5c1.6-2.3,4.4-3.3,7.2-3.3s5.4,0.9,7.9,2c5.7,2.5,11.4,6.2,13.9,11.9c2.7,6.1,1.1,13.3-1.7,19.4
			c3.6-2,8.5-1.3,11.3,1.7c2.8,3,3.2,8,0.9,11.4c-0.5,0.7-1.2,1.4-2,1.5c-0.6,0-1.1-0.2-1.7-0.5c-5.2-2.5-10.4-5-15.6-7.6
			c-3.1-1.5-6.4-3.2-7.8-6.4c-0.9-2-0.8-4.2-0.8-6.3c0-9-0.8-17.9-2.3-26.8"/>
	</g>
</g>
<g id="TEXTURA">
	<g>
		<defs>
			<path id="SVGID_1_" d="M-0.4-2.6v2.4v410.3h1.2v0.9c7.3,5.3,8.6,13.3,9,21.4c0.7,15.8,1,31.6,1.5,47.5c0.2,6,3.7,10.4,8.3,10.4
				c4.2,0,7.5-4.4,7.2-10.3c-0.4-6.9-1.5-13.7-1.9-20.6c-0.2-3.3,0.5-6.7,1.1-10.1c0.7-4.1,2.2-7.8,7.4-7.1c4.7,0.7,6.1,4.4,7.6,8.5
				c2.3,6.3,5.1,12.5,8.3,18.5c4.1,7.6,9.8,14.5,13,22.4c5.5,13.8,5.9,28.5,4.4,43.3c-0.6,5.6-1.1,11.3-0.5,16.8
				c0.1,0.6,0.3,1.1,0.6,1.6c2.1,3,6.5,3.2,9,0.6c0.6-0.7,1.2-1.4,1.5-2.2c1-2.4,0.1-5.5,0-8.3c-0.3-11.8-0.9-23.7-1-35.5
				c0-8.1,4.2-14.7,9.6-20.3c10.1-10.4,28.4-4.3,30.6,9.2c0.8,5,1.5,9.9,2,14.9c0.4,3.9,0.2,10.2-0.5,14.1
				c-0.9,5.6-0.5,12.3,7.1,12.3c5.4,0,6-4.1,5.9-8.2c-0.1-2.2-0.6-4.3-0.6-6.5c-0.6-18.7-2.8-37.5,3.7-55.8
				c4-11.2,10.4-14.8,21-13.4c11.6,1.5,18.8,9.1,20.3,20.8c1.3,10.5,2.4,21,3.8,31.4c0.6,4.9,5.6,8.8,10.5,8.5
				c5.7-0.4,7.6-3.9,7.8-9.1c0.8-19.4,2.3-38.9,2.4-58.3c0.1-11.3,8-17.8,17.8-19.1c17-2.3,22.8,31.2,25.7,43.4c0.7,3,1.3,6,1.9,9
				c1.5,8.4,2.4,16.9,2.6,25.4c0.2,6,0.2,12.1-0.4,18c-0.6,5.4-3.1,10.6-2.6,16.1c0.4,4.5,6.8,13.5,11.7,8c1.3-1.5,2-3.5,1.9-5.5
				c-1.2-33.1-0.8-67.2,7.6-99.5c0.4-1.5,0.8-3,1.8-4.1c1.1-1.2,2.7-1.7,4.2-2.1c4.6-1.1,11.4-1.3,15.6,1.1c3.9,2.3,6,6.8,10.4,8.8
				c1.6,0.7,3.2,1.3,4.8,1.5c1.7,8.7,5.9,14.8,10.8,14.8c5.8,0,10.6-8.5,11.5-19.6c3.9,3.8,9.2,6.1,15.1,6.1c3.1,0,6.1-0.7,8.8-1.8
				c4,11.1,10.3,19.4,23.9,20.9c2.4,0.2,5,2.5,6.7,4.5c12.1,14,15.6,32.5,11.8,50.4c-0.8,3.7-1.9,7.5-1.1,11.2s4.5,6.2,8.2,6.5
				c1.5,0.1,3.1-0.2,4.4-1c2.7-1.9,2.5-4.9,2.2-7.6c-1.3-13.1-4.1-27-2.8-40.2c0.9-10.1,3.9-20,6-30c1.9-9.2,3.4-18.5,5.9-27.6
				c0.8-3,2.4-5.6,4.6-7.4c7.5-0.7,13.8-3.7,18.7,2.7c4,5.3,5.6,12.2,9.7,17.6c3.9,5.2,9.7,8.9,15.9,10.5c2.1,3.2,4.2,6.4,5.6,9.9
				c4,10.1,4.3,20.8,3.2,31.5c-0.4,4.1-0.8,8.2-0.4,12.3c0.1,0.8,0.6,1.5,1.4,2.2c1.4,1.3,3.5,1.4,4.9,0.1c0.8-0.7,1.5-1.5,1.8-2.3
				c0.7-1.7,0.1-4,0-6.1c-0.3-8.6-0.7-17.2-0.7-25.8c0-5.9,3-10.7,7-14.8c5.4-5.6,19.5-4.1,21.3,2.6c1.8,6.8,2.2,14.1,2.8,21.2
				c0.2,2.2-1.5,4.6-1.4,6.8c0.3,3.2,2,6.1,5.8,6.1c3.9,0,4.4-3,4.3-6c0-1.6-0.4-3.1-0.5-4.7c-0.4-13.6-2-27.3,2.7-40.6
				c2.9-8.2,7.5-10.7,15.3-9.8c8.4,1.1,13.7,6.6,14.7,15.1c0.9,7.6,1.8,15.3,2.8,22.9c0.5,3.6,4.1,6.4,7.6,6.2
				c4.1-0.3,5.5-2.8,5.7-6.7c0.6-14.1,1.7-28.3,1.8-42.4c0-8.2,5.8-12.9,12.9-13.9c5.4-0.7,10.3,2.5,11,8.2c0.5,4.3,3.3,9,5,13.9
				c1.3,3.8,2.6,7.7,3.4,11.5c5.7,24.3,0.3,51.1,0.4,64.9c0,2.8-0.8,5.9,0.1,8.4c0.6,1.9,3,3.9,5,4.3c2.7,0.6,4.8-1.2,4.7-4.4
				c0-2-0.3-4.1-0.3-6.1c0.1-14.3-4.2-34.7,0.6-66.3c1.3-8.6,4.4-17.1,6.1-25.8c0.9-4.2,3.2-6.1,6.7-5.4c3.3,0.7,7.1,2.2,9.1,4.7
				c8.1,10,17.8,9.1,23.2-2.6c1.9-4.1,5.3-5.6,9.6-4.4c5.3,1.5,8.4,5.4,9.8,10.3c2.8,9.5,7.3,17,18.4,18.2c1.7,0.2,3.6,1.8,4.9,3.3
				c10.2,11.8,11.4,25.7,7.8,40.1c-0.9,3.4,0,5.7,1.5,7.7c1,1.4,4,2.3,5.7,1.9c1.6-0.4,3.6-2.8,3.7-4.4c0.2-3.9-0.8-7.8-1.1-11.7
				c-0.5-6.5-1.6-13.1-1-19.5c0.7-7.3,2.8-14.6,4.4-21.8c1.4-6.7,2.5-13.5,4.3-20.1c1.1-4,4-7.1,8.5-7.8c14-2,16.6-5.3,20.6-18
				c3.4-12.4-1-403.7-1-403.7h-0.2 M80.2,465.9c-0.2,2.9-3.5,6.8-6.3,7.7c-2.2,0.8-6.4-1.6-8.5-3.8c-9.6-9.9-12.3-22.6-12.6-35.8
				c-0.2-6.2,3.4-8.7,10.3-8.6c8.3,0.1,15.8,5.3,16.9,13.7C81.2,447.9,80.9,457,80.2,465.9z M99.8,444.6l-0.1,1.4
				c-1.2,4.6-1.8,9.2-3.2,13.8c-0.3,1-1.8,2.2-2.7,2.2c-0.9,0-2.6-1.3-2.6-2.2c-0.4-5.5-3.4-10.7-1-16.6c1.4-3.3,2.8-5.5,6.3-5.1
				C100.1,438.6,99.9,441.7,99.8,444.6z"/>
		</defs>
		<clipPath id="SVGID_2_">
			<use xlink:href="#SVGID_1_"  style="overflow:visible;"/>
		</clipPath>
		<g transform="matrix(1 0 0 1 0 0)" style="opacity:0.35;clip-path:url(#SVGID_2_);">
			
				<image style="overflow:visible;" width="4500" height="3000" xlink:href="../../../[ILUSTRACION]/Textura retro/Textures/Paper/Paper_03.png"  transform="matrix(0.1745 0 0 0.1912 -15.2107 -9.9369)">
			</image>
		</g>
	</g>
</g>
</svg>
